<svg width="31" height="27" viewBox="0 0 31 27" fill="none" xmlns="http://www.w3.org/2000/svg">
<path d="M25.3633 3.42456C28.457 8.01831 30.0039 13.1746 29.4414 19.1277C29.4414 19.1277 29.4414 19.1746 29.3945 19.1746C27.332 20.7214 24.9883 21.8933 22.5039 22.6433C22.457 22.6433 22.4102 22.6433 22.4102 22.6433C21.8945 21.8933 21.4258 21.1433 21.0039 20.3464V20.2996C21.0039 20.2527 21.0039 20.2527 21.0508 20.2058C21.8008 19.9246 22.5039 19.5964 23.207 19.1746C23.2539 19.1746 23.2539 19.1746 23.2539 19.1277C23.2539 19.0808 23.2539 19.0808 23.207 19.0339C23.0664 18.9402 22.9258 18.8464 22.7852 18.7058H22.7383H22.6914C18.2383 20.7683 13.3633 20.7683 8.86328 18.7058C8.81641 18.7058 8.81641 18.7058 8.81641 18.7058C8.76953 18.7058 8.76953 18.7058 8.76953 18.7058C8.62891 18.8464 8.48828 18.9402 8.34766 19.0339C8.30078 19.0808 8.30078 19.0808 8.30078 19.1277C8.30078 19.1746 8.30078 19.1746 8.34766 19.1746C9.00391 19.5964 9.75391 19.9246 10.5039 20.2058C10.5039 20.2527 10.5508 20.2527 10.5508 20.2996V20.3464C10.1289 21.1433 9.66016 21.8933 9.14453 22.6433C9.09766 22.6433 9.09766 22.6433 9.05078 22.6433C6.51953 21.8933 4.17578 20.7214 2.16016 19.1746C2.11328 19.1746 2.11328 19.1277 2.11328 19.1277C1.64453 13.9714 2.62891 8.76831 6.19141 3.42456C6.19141 3.42456 6.19141 3.42456 6.23828 3.42456C7.97266 2.62769 9.89453 2.01831 11.8164 1.69019C11.8164 1.69019 11.8164 1.69019 11.8633 1.69019H11.9102C12.1914 2.15894 12.4258 2.67456 12.6133 3.14331C13.6445 3.00269 14.6758 2.90894 15.7539 2.90894C16.832 2.90894 17.9102 3.00269 18.9414 3.14331C19.1289 2.67456 19.3633 2.15894 19.6445 1.69019L19.6914 1.64331C19.6914 1.64331 19.6914 1.69019 19.7383 1.69019C21.6602 2.01831 23.582 2.62769 25.3164 3.42456C25.3633 3.42456 25.3633 3.42456 25.3633 3.42456ZM11.207 15.9871C12.5664 15.9871 13.6914 14.7214 13.6914 13.2214C13.6914 11.6746 12.6133 10.4558 11.207 10.4558C9.84766 10.4558 8.72266 11.6746 8.72266 13.2214C8.72266 14.7214 9.84766 15.9871 11.207 15.9871ZM20.3477 15.9871C21.7539 15.9871 22.832 14.7214 22.832 13.2214C22.8789 11.6746 21.7539 10.4558 20.3477 10.4558C18.9883 10.4558 17.9102 11.6746 17.9102 13.2214C17.9102 14.7214 18.9883 15.9871 20.3477 15.9871Z" fill="#0F051D"/>
</svg>
