<svg width="22" height="27" viewBox="0 0 22 27" fill="none" xmlns="http://www.w3.org/2000/svg">
<path d="M11.3008 6.75269C14.2539 6.75269 16.6914 9.19019 16.6914 12.1433C16.6914 15.1433 14.2539 17.5339 11.3008 17.5339C8.30078 17.5339 5.91016 15.1433 5.91016 12.1433C5.91016 9.19019 8.30078 6.75269 11.3008 6.75269ZM11.3008 15.6589C13.2227 15.6589 14.7695 14.1121 14.7695 12.1433C14.7695 10.2214 13.2227 8.67456 11.3008 8.67456C9.33203 8.67456 7.78516 10.2214 7.78516 12.1433C7.78516 14.1121 9.37891 15.6589 11.3008 15.6589ZM18.1445 6.56519C18.1445 7.26831 17.582 7.83081 16.8789 7.83081C16.1758 7.83081 15.6133 7.26831 15.6133 6.56519C15.6133 5.86206 16.1758 5.29956 16.8789 5.29956C17.582 5.29956 18.1445 5.86206 18.1445 6.56519ZM21.707 7.83081C21.8008 9.56519 21.8008 14.7683 21.707 16.5027C21.6133 18.1902 21.2383 19.6433 20.0195 20.9089C18.8008 22.1277 17.3008 22.5027 15.6133 22.5964C13.8789 22.6902 8.67578 22.6902 6.94141 22.5964C5.25391 22.5027 3.80078 22.1277 2.53516 20.9089C1.31641 19.6433 0.941406 18.1902 0.847656 16.5027C0.753906 14.7683 0.753906 9.56519 0.847656 7.83081C0.941406 6.14331 1.31641 4.64331 2.53516 3.42456C3.80078 2.20581 5.25391 1.83081 6.94141 1.73706C8.67578 1.64331 13.8789 1.64331 15.6133 1.73706C17.3008 1.83081 18.8008 2.20581 20.0195 3.42456C21.2383 4.64331 21.6133 6.14331 21.707 7.83081ZM19.457 18.3308C20.0195 16.9714 19.8789 13.6902 19.8789 12.1433C19.8789 10.6433 20.0195 7.36206 19.457 5.95581C19.082 5.06519 18.3789 4.31519 17.4883 3.98706C16.082 3.42456 12.8008 3.56519 11.3008 3.56519C9.75391 3.56519 6.47266 3.42456 5.11328 3.98706C4.17578 4.36206 3.47266 5.06519 3.09766 5.95581C2.53516 7.36206 2.67578 10.6433 2.67578 12.1433C2.67578 13.6902 2.53516 16.9714 3.09766 18.3308C3.47266 19.2683 4.17578 19.9714 5.11328 20.3464C6.47266 20.9089 9.75391 20.7683 11.3008 20.7683C12.8008 20.7683 16.082 20.9089 17.4883 20.3464C18.3789 19.9714 19.1289 19.2683 19.457 18.3308Z" fill="#0F051D"/>
</svg>
