<svg width="55" height="55" viewBox="0 0 55 55" fill="none" xmlns="http://www.w3.org/2000/svg">
<g filter="url(#filter0_d_1_203)">
<rect x="7.80078" y="4.9834" width="40" height="40" rx="20" fill="white"/>
<rect x="8.30078" y="5.4834" width="39" height="39" rx="19.5" stroke="#838383" stroke-opacity="0.25"/>
<path d="M31.4604 25.3564L25.7769 31.0693C25.4839 31.333 25.0444 31.333 24.7808 31.0693L24.1069 30.3955C23.8433 30.1318 23.8433 29.6924 24.1069 29.3994L28.6187 24.8584L24.1069 20.3467C23.8433 20.0537 23.8433 19.6143 24.1069 19.3506L24.7808 18.6768C25.0444 18.4131 25.4839 18.4131 25.7769 18.6768L31.4604 24.3896C31.7241 24.6533 31.7241 25.0928 31.4604 25.3564Z" fill="#7B7583"/>
</g>
<defs>
<filter id="filter0_d_1_203" x="0.800781" y="0.983398" width="54" height="54" filterUnits="userSpaceOnUse" color-interpolation-filters="sRGB">
<feFlood flood-opacity="0" result="BackgroundImageFix"/>
<feColorMatrix in="SourceAlpha" type="matrix" values="0 0 0 0 0 0 0 0 0 0 0 0 0 0 0 0 0 0 127 0" result="hardAlpha"/>
<feMorphology radius="1" operator="erode" in="SourceAlpha" result="effect1_dropShadow_1_203"/>
<feOffset dy="3"/>
<feGaussianBlur stdDeviation="4"/>
<feComposite in2="hardAlpha" operator="out"/>
<feColorMatrix type="matrix" values="0 0 0 0 0 0 0 0 0 0 0 0 0 0 0 0 0 0 0.08 0"/>
<feBlend mode="normal" in2="BackgroundImageFix" result="effect1_dropShadow_1_203"/>
<feBlend mode="normal" in="SourceGraphic" in2="effect1_dropShadow_1_203" result="shape"/>
</filter>
</defs>
</svg>
