<svg width="25" height="27" viewBox="0 0 25 27" fill="none" xmlns="http://www.w3.org/2000/svg">
<path d="M22.3164 7.26831C22.3164 7.50269 22.3164 7.69019 22.3164 7.92456C22.3164 14.4402 17.3945 21.8933 8.34766 21.8933C5.53516 21.8933 2.95703 21.0964 0.800781 19.6902C1.17578 19.7371 1.55078 19.7839 1.97266 19.7839C4.26953 19.7839 6.37891 18.9871 8.06641 17.6746C5.91016 17.6277 4.08203 16.2214 3.47266 14.2527C3.80078 14.2996 4.08203 14.3464 4.41016 14.3464C4.83203 14.3464 5.30078 14.2527 5.67578 14.1589C3.42578 13.6902 1.73828 11.7214 1.73828 9.33081V9.28394C2.39453 9.65894 3.19141 9.84644 3.98828 9.89331C2.62891 9.00269 1.78516 7.50269 1.78516 5.81519C1.78516 4.87769 2.01953 4.03394 2.44141 3.33081C4.87891 6.28394 8.53516 8.25269 12.6133 8.48706C12.5195 8.11206 12.4727 7.73706 12.4727 7.36206C12.4727 4.64331 14.6758 2.44019 17.3945 2.44019C18.8008 2.44019 20.0664 3.00269 21.0039 3.98706C22.082 3.75269 23.1602 3.33081 24.0977 2.76831C23.7227 3.94019 22.9727 4.87769 21.9414 5.48706C22.9258 5.39331 23.9102 5.11206 24.7539 4.73706C24.0977 5.72144 23.2539 6.56519 22.3164 7.26831Z" fill="#0F051D"/>
</svg>
