<svg width="25" height="27" viewBox="0 0 25 27" fill="none" xmlns="http://www.w3.org/2000/svg">
<path d="M22.4102 6.14331C23.7227 6.14331 24.8008 7.17456 24.8008 8.39331V20.3933C24.8008 21.6589 23.7227 22.6433 22.4102 22.6433H3.80078C2.11328 22.6433 0.800781 21.3308 0.800781 19.6433V4.64331C0.800781 3.00269 2.11328 1.64331 3.80078 1.64331H21.0508C22.2695 1.64331 23.3008 2.67456 23.3008 3.89331C23.3008 4.31519 22.9258 4.64331 22.5508 4.64331H4.55078C4.12891 4.64331 3.80078 5.01831 3.80078 5.39331C3.80078 5.81519 4.12891 6.14331 4.55078 6.14331H22.4102ZM20.3008 15.8933C21.0977 15.8933 21.8008 15.2371 21.8008 14.3933C21.8008 13.5964 21.0977 12.8933 20.3008 12.8933C19.457 12.8933 18.8008 13.5964 18.8008 14.3933C18.8008 15.2371 19.457 15.8933 20.3008 15.8933Z" fill="#0F051D"/>
</svg>
