<svg width="127" height="35" viewBox="0 0 127 35" fill="none" xmlns="http://www.w3.org/2000/svg">
<g clip-path="url(#clip0_1_896)">
<path d="M23.6473 17.2372L33.4711 27.0611H29.995C29.4093 27.0611 28.8237 26.8154 28.408 26.3998L19.2832 17.2372L28.4459 8.05576C28.8615 7.64011 29.4282 7.39453 30.0327 7.41341H33.4711L23.6473 17.2372ZM5.64327 8.05576C5.22765 7.64011 4.66089 7.39453 4.05635 7.41341H0.599121L10.4229 17.2372L0.599121 27.0611H4.07524C4.66089 27.0611 5.24654 26.8154 5.66216 26.3998L14.8059 17.2184L5.64327 8.05576ZM17.0351 19.4854L7.85365 28.648C7.438 29.0636 7.21131 29.6303 7.21131 30.2349V33.6921L17.0351 23.8683L26.859 33.6921V30.216C26.859 29.6303 26.6322 29.0447 26.2166 28.6291L17.0351 19.4854ZM17.0351 14.9891L26.2166 5.8265C26.6322 5.41088 26.859 4.84411 26.859 4.23958V0.782349L17.0351 10.6061L7.21131 0.782349V4.23958C7.21131 4.82523 7.438 5.41088 7.85365 5.8265L17.0351 14.9891Z" fill="url(#paint0_linear_1_896)"/>
<path fill-rule="evenodd" clip-rule="evenodd" d="M106.944 5.5526V25.7481C106.926 26.0692 107.058 26.3904 107.285 26.636C107.511 26.8816 107.833 27.0138 108.154 27.0138H108.512C108.853 27.0138 109.174 26.8816 109.401 26.636C109.627 26.3904 109.76 26.0692 109.76 25.7481V5.5526H112.102V26.277C112.102 27.8451 110.856 29.1109 109.287 29.1486H107.493C106.718 29.1486 105.981 28.8652 105.433 28.3174C104.886 27.7695 104.583 27.0517 104.583 26.277V5.5526H106.944ZM123.607 5.3259C125.175 5.36368 126.441 6.83726 126.441 8.42418V10.2945C126.441 10.559 126.271 10.7857 126.007 10.8612L124.061 11.4091V8.72644C124.061 8.04634 123.494 7.47956 122.814 7.47956C122.134 7.47956 121.567 8.02747 121.567 8.72644V10.9557C121.567 12.3348 122.587 14.0918 122.587 14.0918L125.383 19.4759C126.517 21.6107 126.422 23.1788 126.422 23.1788V26.1637C126.422 26.9383 126.12 27.6939 125.572 28.2607C125.024 28.8275 124.269 29.1298 123.475 29.1486H122.002C120.414 29.0542 119.168 27.7506 119.168 26.1637V22.8199C119.168 22.5554 119.338 22.3287 119.602 22.2531L121.548 21.7053V25.7859C121.548 26.466 122.115 27.0138 122.814 27.0138C123.494 27.0138 124.061 26.4471 124.042 25.7481V23.0843C124.042 21.7241 123.021 19.9105 123.021 19.9105L120.264 14.5262C119.13 12.3915 119.225 10.8234 119.225 10.8234V8.42418C119.225 6.79947 120.528 5.3259 122.172 5.3259H123.607ZM79.3811 5.3259C80.9684 5.40147 82.215 6.7239 82.215 8.31079V26.2393C82.1963 27.8073 80.9491 29.0919 79.3811 29.1675H77.5863C75.9809 29.1486 74.677 27.8451 74.6583 26.2393V8.29192C74.6583 7.51738 74.9605 6.76168 75.5087 6.19493C76.0563 5.62817 76.812 5.32589 77.6056 5.30701L79.3811 5.3259ZM52.4602 5.5526L51.8935 7.51738C51.8179 7.78183 51.5912 7.9519 51.3267 7.9519H47.5672V15.4709H51.459L50.8922 17.4357C50.8167 17.6812 50.59 17.8702 50.3254 17.8702H47.5672V26.5416H52.4602L51.9124 28.4874C51.8368 28.7519 51.6101 28.9219 51.3456 28.9219H45.2246V5.5526H52.4602ZM94.2302 5.5526C95.8549 5.5715 97.1395 6.87504 97.1395 8.48087V25.9748C97.1395 27.5806 95.8363 28.9031 94.2302 28.9031H89.6963V5.5526H94.2302ZM63.3609 13.0716L65.5146 5.5526H67.9139L64.57 17.2467L67.9327 28.9408H65.5335L63.3609 21.4029L61.2072 28.9219H58.808L62.1518 17.2467L58.7891 5.5526H61.1883L63.3609 13.0716ZM78.5881 27.0517C78.9275 27.0517 79.249 26.9005 79.4758 26.6549C79.7026 26.4093 79.8346 26.0882 79.8159 25.7481V8.72644C79.8346 8.38636 79.7026 8.06522 79.4758 7.81965C79.249 7.57407 78.9275 7.44181 78.5881 7.42287H78.2286C77.5296 7.46069 76.982 8.02747 76.982 8.72644V25.7481C76.982 26.4471 77.5296 27.0138 78.2286 27.0517H78.5881ZM93.5693 26.5604C94.2302 26.5604 94.8158 26.2204 94.8158 25.3136V9.16097C94.8158 8.29192 94.2302 7.9519 93.5693 7.9519H92.0386V26.5604H93.5693Z" fill="white"/>
</g>
<defs>
<linearGradient id="paint0_linear_1_896" x1="0.58816" y1="17.2337" x2="21.3728" y2="17.2337" gradientUnits="userSpaceOnUse">
<stop stop-color="#00BFFF"/>
<stop offset="1" stop-color="#6619FF"/>
</linearGradient>
<clipPath id="clip0_1_896">
<rect width="126.52" height="33.8769" fill="white" transform="translate(-0.00976562 0.491577)"/>
</clipPath>
</defs>
</svg>
